<?xml version="1.0" standalone="no"?>
<!DOCTYPE svg PUBLIC "-//W3C//DTD SVG 20010904//EN"
 "http://www.w3.org/TR/2001/REC-SVG-20010904/DTD/svg10.dtd">
<svg version="1.0" xmlns="http://www.w3.org/2000/svg"
 width="980.000000pt" height="497.000000pt" viewBox="0 0 980.000000 497.000000"
 preserveAspectRatio="xMidYMid meet">

<g transform="translate(0.000000,497.000000) scale(0.100000,-0.100000)"
fill="#000000" stroke="none">
<path d="M1480 4849 c-19 -5 -65 -11 -102 -13 -37 -2 -75 -7 -85 -10 -10 -3
-67 -10 -126 -15 -59 -5 -113 -13 -120 -18 -16 -12 -89 -33 -114 -33 -11 0
-31 -8 -44 -18 -13 -11 -43 -22 -67 -26 -23 -3 -84 -25 -135 -47 -50 -22 -101
-43 -112 -47 -11 -3 -31 -16 -45 -29 l-24 -23 22 -20 c12 -11 22 -30 22 -40 0
-11 9 -29 20 -40 11 -11 20 -27 20 -35 0 -8 31 -75 68 -147 38 -73 72 -145 75
-160 11 -44 34 -49 107 -25 36 12 67 25 70 29 3 4 33 14 65 21 33 8 74 22 90
31 17 9 40 16 52 16 12 0 25 4 28 10 3 5 16 9 29 8 12 -1 35 3 52 9 16 6 52
14 79 16 28 3 106 15 175 27 176 32 252 30 375 -10 117 -37 169 -67 210 -122
17 -22 38 -48 48 -59 10 -11 30 -50 44 -87 23 -58 27 -86 30 -207 3 -102 0
-147 -9 -164 -24 -44 -69 -51 -352 -53 -283 -2 -479 -11 -566 -28 -30 -5 -97
-17 -149 -25 -51 -9 -99 -19 -105 -23 -6 -4 -47 -14 -91 -23 -95 -20 -312
-116 -366 -162 -20 -18 -56 -45 -79 -62 -42 -30 -150 -156 -154 -179 -1 -7
-11 -24 -22 -39 -12 -14 -27 -54 -34 -89 -7 -35 -16 -67 -21 -73 -4 -5 -14
-48 -22 -95 -24 -138 -13 -409 21 -515 5 -16 18 -59 28 -95 9 -36 23 -72 29
-80 6 -8 23 -36 38 -61 31 -54 69 -101 153 -184 44 -44 88 -74 165 -113 57
-29 109 -52 116 -52 7 0 29 -9 50 -19 102 -52 676 -46 781 8 23 12 54 21 70
21 15 0 32 4 37 9 6 5 40 26 78 45 37 20 92 56 122 81 30 24 64 49 75 55 11 6
20 17 20 25 0 8 5 15 12 15 6 0 48 38 93 84 84 87 123 109 151 85 23 -19 64
-86 64 -104 0 -8 9 -34 19 -58 28 -61 69 -167 77 -200 3 -15 14 -32 24 -37 20
-11 498 -14 524 -4 14 5 16 117 16 1127 0 944 -2 1129 -14 1176 -8 31 -24 94
-36 140 -40 163 -102 274 -220 397 -68 71 -113 107 -185 150 -53 32 -242 114
-262 114 -7 0 -16 6 -20 13 -5 8 -61 19 -153 30 -80 9 -167 21 -195 26 -63 12
-368 12 -415 0z m656 -1699 c46 -16 54 -47 54 -219 0 -175 -11 -266 -40 -328
-11 -24 -20 -47 -20 -53 0 -5 -4 -10 -9 -10 -5 0 -17 -19 -27 -42 -28 -64 -94
-151 -139 -185 -69 -53 -194 -113 -234 -113 -21 0 -46 -7 -57 -15 -15 -11 -53
-14 -166 -15 -81 0 -149 4 -152 9 -3 4 -33 14 -66 20 -166 33 -271 196 -265
411 2 70 7 91 37 160 39 91 54 115 97 158 86 84 179 136 278 153 37 6 79 16
93 22 39 16 43 16 275 27 179 9 304 21 311 29 1 0 14 -4 30 -9z"/>
<path d="M4948 4854 c-4 -3 -58 -12 -121 -20 -63 -8 -132 -21 -153 -30 -22 -9
-52 -20 -69 -24 -63 -17 -194 -79 -304 -145 -89 -53 -137 -91 -213 -167 -102
-102 -209 -252 -242 -340 -10 -26 -22 -50 -27 -53 -5 -4 -9 -14 -9 -23 0 -10
-9 -35 -21 -56 -28 -52 -57 -160 -74 -274 -7 -51 -22 -116 -31 -145 -16 -46
-18 -91 -18 -372 1 -265 4 -330 17 -375 9 -31 23 -101 32 -155 40 -260 178
-541 349 -711 122 -120 268 -213 421 -267 160 -56 216 -70 330 -85 246 -33
780 -11 900 37 28 11 88 34 135 51 108 40 178 74 210 101 l25 21 3 329 c2 296
1 330 -13 336 -10 3 -44 -9 -83 -31 -98 -53 -192 -96 -210 -96 -10 0 -44 -12
-77 -25 -33 -14 -78 -28 -100 -31 -22 -3 -58 -13 -80 -21 -49 -20 -374 -30
-450 -15 -257 52 -426 219 -508 502 -36 124 -60 348 -54 500 6 162 24 312 43
364 8 22 22 68 30 100 15 62 35 105 92 196 38 61 130 160 148 160 6 0 28 12
49 26 70 47 154 72 271 79 194 12 358 -11 529 -75 28 -11 64 -22 80 -26 17 -4
50 -15 74 -26 24 -11 58 -22 75 -25 37 -6 54 13 76 82 7 22 19 51 27 63 16 26
46 108 69 186 7 26 18 53 23 60 20 25 71 170 71 202 0 28 -5 36 -27 45 -16 6
-41 17 -58 25 -45 20 -142 53 -215 74 -36 10 -77 22 -91 28 -14 6 -75 15 -135
21 -60 6 -127 16 -149 21 -43 10 -538 14 -547 4z"/>
<path d="M7995 4844 c-134 -8 -344 -36 -410 -55 -38 -11 -97 -33 -130 -49 -33
-15 -71 -31 -84 -35 -94 -28 -307 -202 -342 -280 -5 -11 -22 -40 -37 -65 -15
-25 -39 -76 -53 -115 -22 -65 -24 -84 -24 -260 0 -220 6 -248 89 -415 61 -122
122 -190 257 -286 97 -69 459 -253 619 -314 69 -27 232 -103 276 -130 58 -36
116 -69 142 -82 12 -6 22 -15 22 -20 0 -4 4 -8 10 -8 5 0 31 -21 59 -46 89
-82 115 -209 63 -310 -25 -47 -97 -124 -117 -124 -8 0 -15 -4 -15 -9 0 -10
-94 -42 -180 -61 -37 -8 -114 -10 -230 -7 -147 4 -199 9 -325 36 -82 18 -168
36 -190 40 -22 4 -49 12 -60 18 -35 19 -202 73 -224 73 -20 0 -88 24 -148 52
-12 6 -29 8 -37 5 -14 -6 -16 -43 -16 -305 0 -228 3 -302 13 -309 6 -6 30 -15
52 -21 104 -28 295 -84 340 -99 154 -51 1016 -57 1130 -8 17 7 50 16 75 20 25
4 56 14 70 23 25 17 133 58 180 69 14 3 34 13 45 23 11 9 48 34 82 54 93 57
200 177 267 301 39 73 77 216 84 323 11 150 -1 315 -27 375 -12 27 -21 55 -21
63 0 24 -45 105 -97 174 -87 118 -201 212 -358 296 -49 26 -102 56 -117 66
-14 10 -33 18 -40 18 -8 0 -37 11 -64 25 -27 14 -58 25 -68 25 -11 0 -29 8
-40 18 -12 10 -55 28 -96 41 -41 13 -102 36 -135 51 -110 51 -154 70 -163 70
-5 0 -64 36 -130 80 -129 86 -158 119 -182 210 -16 60 3 152 39 189 113 118
352 149 661 86 47 -10 105 -24 130 -32 25 -8 62 -18 83 -22 21 -5 46 -16 56
-25 9 -9 24 -16 32 -16 8 -1 30 -7 49 -14 115 -44 205 -73 215 -70 7 3 22 31
35 62 13 31 27 59 32 63 4 3 12 30 18 60 6 29 15 56 20 57 6 2 10 9 10 16 0 7
13 38 29 69 16 31 32 68 35 83 4 15 16 40 27 56 12 16 19 40 17 55 -3 24 -14
31 -97 65 -52 21 -126 46 -165 54 -39 9 -81 22 -93 30 -12 8 -31 14 -42 14
-10 0 -52 11 -92 24 -106 35 -536 71 -714 60z"/>
<path d="M2289 1201 c-23 -24 -29 -38 -29 -73 0 -24 4 -48 8 -54 12 -18 69
-44 98 -44 60 0 125 70 109 119 -3 11 -19 34 -35 50 -23 26 -36 31 -75 31 -38
0 -52 -5 -76 -29z"/>
<path d="M297 1193 c-14 -16 -17 -39 -17 -121 0 -110 -4 -118 -70 -137 -33
-10 -40 -22 -40 -75 0 -55 7 -66 45 -76 65 -15 65 -14 65 -261 0 -251 4 -272
65 -318 34 -26 45 -29 147 -33 128 -5 128 -6 128 84 0 71 -7 79 -70 87 -25 3
-50 13 -57 23 -18 24 -19 384 -1 402 7 7 33 12 58 12 25 0 51 5 58 12 16 16
16 120 0 136 -7 7 -28 12 -48 12 -69 0 -78 16 -82 139 -1 60 -7 113 -11 118
-5 4 -41 9 -80 11 -61 3 -75 1 -90 -15z"/>
<path d="M7545 1203 c-40 -10 -45 -23 -45 -117 0 -107 -12 -138 -58 -147 -46
-9 -62 -27 -62 -68 0 -64 9 -80 49 -87 20 -4 42 -11 49 -17 9 -7 12 -64 13
-221 0 -257 6 -295 45 -330 40 -35 84 -46 186 -46 105 0 118 9 118 81 0 58
-24 89 -69 89 -16 0 -38 8 -50 18 -19 16 -21 28 -22 205 -2 209 1 217 60 217
58 0 81 22 81 79 0 57 -12 71 -70 78 -62 9 -77 35 -79 138 -1 46 -4 91 -7 99
-11 29 -80 43 -139 29z"/>
<path d="M1084 920 c-32 -16 -62 -30 -66 -30 -4 0 -18 11 -32 25 -22 22 -34
25 -96 25 -120 0 -110 36 -110 -385 0 -350 1 -365 19 -375 28 -15 168 -13 178
3 4 6 10 112 13 234 l5 221 30 43 c25 36 41 46 100 67 39 13 76 28 83 34 7 7
12 37 12 83 0 57 -3 74 -16 79 -31 12 -62 6 -120 -24z"/>
<path d="M1551 922 c-90 -37 -157 -108 -194 -201 -23 -60 -27 -85 -27 -171 0
-86 4 -110 26 -163 30 -71 76 -124 153 -174 66 -43 148 -57 269 -47 77 6 87
10 155 55 84 56 141 129 135 175 -3 29 -3 29 -80 32 l-76 3 -50 -44 c-42 -37
-59 -45 -103 -51 -104 -12 -177 27 -201 107 -11 37 -10 41 11 58 21 17 44 19
266 19 277 0 275 -1 275 76 0 62 -52 180 -106 242 -36 42 -59 56 -124 81 -69
27 -92 31 -172 30 -78 0 -104 -4 -157 -27z m241 -131 c39 -16 98 -71 98 -89
-1 -31 -20 -35 -160 -33 -78 1 -148 5 -156 8 -39 15 9 87 77 114 57 23 87 23
141 0z"/>
<path d="M2945 914 l-59 -36 -23 29 c-22 26 -27 28 -101 28 -52 0 -85 -5 -95
-14 -15 -12 -17 -51 -17 -370 0 -264 3 -360 12 -369 7 -7 44 -12 95 -12 80 0
84 1 93 26 6 14 10 128 10 253 0 219 1 230 23 272 31 58 57 71 136 66 58 -3
66 -6 91 -37 16 -19 31 -48 34 -64 3 -16 6 -131 6 -256 0 -126 3 -235 6 -244
9 -23 165 -23 188 0 14 13 16 50 16 252 -1 338 -20 408 -130 478 -39 25 -56
29 -135 31 -88 3 -91 2 -150 -33z"/>
<path d="M3770 944 c-101 -38 -162 -86 -205 -161 -41 -69 -15 -90 97 -80 55 5
65 9 97 45 46 50 106 71 151 52 40 -17 70 -55 70 -91 0 -37 -50 -64 -146 -79
-38 -6 -95 -20 -127 -30 -31 -11 -63 -20 -71 -20 -7 0 -36 -18 -63 -39 -45
-36 -50 -45 -60 -98 -12 -63 -2 -152 20 -184 7 -9 34 -33 61 -54 l50 -38 108
1 c105 0 109 1 159 33 50 32 52 32 65 13 7 -10 18 -25 24 -32 14 -16 171 -17
188 0 9 9 12 76 12 242 0 202 -3 239 -21 305 -28 102 -57 143 -132 182 -56 29
-72 33 -162 35 -55 2 -107 1 -115 -2z m214 -460 c23 -61 -13 -125 -90 -161
-98 -45 -184 -13 -184 68 0 67 75 106 206 108 48 1 63 -3 68 -15z"/>
<path d="M4695 929 c-22 -12 -44 -25 -49 -30 -16 -15 -38 -10 -63 13 -21 19
-35 23 -104 23 -68 0 -83 -3 -95 -19 -19 -27 -21 -715 -2 -734 14 -14 165 -17
186 -3 18 11 20 34 21 309 l1 244 29 29 c25 24 38 29 78 29 55 0 71 -9 101
-61 21 -35 22 -48 22 -286 0 -180 3 -252 12 -261 17 -17 162 -16 176 1 5 7 13
124 17 267 9 320 16 339 123 340 37 0 77 -23 95 -54 8 -14 14 -107 17 -291 l5
-270 88 -3 c59 -2 94 1 104 9 12 10 14 57 11 293 l-3 281 -28 60 c-22 49 -38
68 -80 95 -49 33 -57 35 -138 35 -84 0 -87 -1 -149 -42 -70 -48 -81 -51 -101
-26 -8 9 -32 29 -53 45 -34 24 -48 28 -110 28 -53 0 -81 -5 -111 -21z"/>
<path d="M5890 938 c-14 -8 -46 -22 -71 -31 -88 -33 -168 -145 -191 -266 -14
-75 -3 -201 21 -257 33 -74 101 -145 176 -183 67 -34 69 -35 194 -34 l126 1
65 39 c67 41 145 125 156 168 12 48 1 55 -83 55 l-78 0 -46 -44 c-38 -36 -56
-45 -98 -51 -80 -11 -142 8 -180 55 -37 47 -43 103 -12 120 12 6 113 10 259
10 219 0 240 2 255 18 23 25 21 85 -4 163 -35 106 -88 165 -189 212 -57 27
-78 31 -170 34 -75 3 -112 0 -130 -9z m202 -147 c84 -36 116 -109 53 -122 -40
-9 -224 -9 -254 0 -13 3 -29 14 -34 23 -24 38 84 115 165 117 14 1 46 -7 70
-18z"/>
<path d="M6860 920 c-50 -34 -79 -33 -117 2 -19 17 -32 20 -93 16 -48 -2 -74
-8 -80 -18 -15 -23 -13 -723 2 -738 14 -14 146 -16 168 -2 12 8 16 52 20 257
5 230 7 251 27 289 27 51 65 68 139 62 65 -6 91 -26 104 -84 5 -21 10 -138 10
-259 0 -157 4 -227 13 -245 12 -23 18 -25 99 -28 84 -3 88 -2 93 21 4 12 5
151 3 308 -3 280 -3 285 -27 324 -37 60 -52 75 -103 101 -39 20 -63 24 -130
24 -76 0 -87 -3 -128 -30z"/>
<path d="M8192 919 c-91 -39 -154 -100 -195 -189 -27 -59 -30 -74 -29 -170 0
-91 3 -114 27 -170 51 -123 162 -206 296 -221 184 -21 316 31 403 158 40 59
47 78 57 148 29 210 -38 354 -199 432 -71 34 -85 37 -182 40 -99 3 -109 2
-178 -28z m281 -179 c72 -64 93 -157 61 -272 -23 -80 -71 -124 -146 -133 -156
-18 -229 86 -203 291 6 54 11 63 58 107 50 46 51 47 117 47 64 0 69 -2 113
-40z"/>
<path d="M9063 929 c-128 -52 -185 -173 -134 -284 31 -69 133 -129 248 -146
92 -13 176 -49 187 -81 23 -64 -24 -112 -108 -112 -63 0 -102 20 -157 79 l-43
46 -75 -3 -76 -3 -3 -38 c-6 -66 49 -132 157 -188 62 -33 65 -33 200 -33 l136
0 63 38 c86 52 117 105 117 202 0 59 -4 77 -27 111 -22 33 -40 45 -105 71 -43
17 -103 35 -133 41 -30 5 -84 20 -119 33 -52 19 -66 29 -72 50 -10 39 11 71
58 87 57 20 110 3 171 -55 42 -39 52 -44 94 -44 110 0 128 42 55 132 -29 36
-61 62 -102 83 -54 26 -71 30 -170 32 -93 2 -118 -1 -162 -18z"/>
<path d="M2284 926 c-18 -14 -19 -31 -22 -365 -2 -240 1 -357 8 -371 10 -19
19 -21 93 -18 76 3 82 5 94 28 9 19 13 111 13 361 l0 336 -23 21 c-19 18 -35
22 -83 22 -36 0 -68 -6 -80 -14z"/>
</g>
</svg>
